<svg width="32" height="32" viewBox="0 0 32 32" fill="none" xmlns="http://www.w3.org/2000/svg">
<path d="M0 8C0 3.58172 3.58172 0 8 0H24C28.4183 0 32 3.58172 32 8V24C32 28.4183 28.4183 32 24 32H8C3.58172 32 0 28.4183 0 24V8Z" fill="#16A34A"/>
<g clip-path="url(#clip0_2011_2424)">
<path d="M10.1667 23.4998C10.5834 19.7498 12.2501 16.8332 16.0001 15.1665" stroke="white" stroke-width="1.5" stroke-linecap="round" stroke-linejoin="round"/>
<path d="M13.5001 20.9999C18.6818 20.9999 22.2501 18.2599 22.6668 10.9999V9.33325H19.3218C11.8218 9.33325 9.33344 12.6666 9.32178 16.8333C9.32178 17.6666 9.32178 19.3333 10.9884 20.9999H13.4884H13.5001Z" stroke="white" stroke-width="1.5" stroke-linecap="round" stroke-linejoin="round"/>
</g>
<defs>
<clipPath id="clip0_2011_2424">
<rect width="20" height="20" fill="white" transform="translate(6 6)"/>
</clipPath>
</defs>
</svg>
